<?xml version="1.0" standalone="no"?>
<!DOCTYPE svg PUBLIC "-//W3C//DTD SVG 20010904//EN"
 "http://www.w3.org/TR/2001/REC-SVG-20010904/DTD/svg10.dtd">
<svg version="1.0" xmlns="http://www.w3.org/2000/svg"
 width="923.000000pt" height="923.000000pt" viewBox="0 0 923.000000 923.000000"
 preserveAspectRatio="xMidYMid meet">
<metadata>
Created by potrace 1.14, written by Peter Selinger 2001-2017
</metadata>
<g transform="translate(0.000000,923.000000) scale(0.100000,-0.100000)"
fill="#000000" stroke="none">
<path d="M2800 7191 c0 -6 9 -34 19 -63 24 -63 82 -302 110 -448 33 -170 43
-214 49 -225 4 -5 7 -23 8 -38 2 -40 7 -41 53 -17 58 29 160 60 180 53 37 -11
61 -27 61 -40 0 -14 -101 -98 -140 -116 -41 -18 -114 -68 -132 -91 -12 -14
-18 -39 -18 -73 0 -46 -6 -62 -57 -140 -143 -222 -246 -565 -261 -873 l-7
-135 -22 40 c-12 22 -34 51 -48 64 -14 13 -25 27 -25 31 0 5 -24 32 -52 60
-165 160 -377 232 -643 219 -189 -10 -487 -9 -525 1 -19 5 -62 15 -95 24 -122
30 -341 117 -362 143 -10 13 -15 12 -38 -3 -66 -43 -144 -188 -203 -374 -36
-114 -79 -295 -88 -369 -8 -68 -12 -591 -5 -591 3 0 6 -28 7 -63 1 -61 38
-213 71 -290 9 -20 14 -40 11 -43 -10 -9 -158 101 -186 139 -8 10 -21 25 -31
35 -66 67 -124 170 -136 242 -5 32 -18 50 -35 50 -17 0 -103 -98 -128 -147 -7
-12 -18 -27 -25 -35 -21 -21 -96 -165 -90 -172 4 -3 1 -6 -5 -6 -9 0 -12 -258
-12 -1056 l0 -1056 22 -19 c55 -47 147 -109 162 -109 22 0 20 -18 -9 -69 -14
-24 -27 -51 -28 -60 -1 -9 -5 -20 -9 -26 -21 -35 -79 -326 -94 -472 -13 -131
-3 -328 19 -349 4 -4 7 -22 7 -40 0 -18 5 -45 11 -61 6 -15 13 -39 15 -53 6
-29 74 -170 83 -170 3 0 12 -13 19 -28 7 -16 30 -49 52 -73 22 -24 40 -47 40
-51 0 -4 9 -10 20 -13 11 -3 20 -12 20 -20 0 -13 70 -50 121 -65 23 -7 25 -5
21 16 -2 14 -8 27 -13 30 -5 3 -9 14 -9 25 0 10 -5 19 -11 19 -8 0 -10 16 -6
52 8 63 37 97 93 108 64 13 84 19 143 36 68 21 54 18 126 33 126 27 241 53
255 58 19 8 27 10 72 17 20 3 60 14 90 25 29 11 73 25 98 31 25 6 59 19 75 29
17 9 53 26 82 36 49 18 52 18 69 0 10 -10 19 -23 20 -29 10 -59 55 -220 62
-226 4 -3 13 -23 21 -45 7 -22 26 -61 42 -88 16 -26 29 -52 29 -57 0 -6 5 -10
10 -10 6 0 10 -6 10 -12 0 -20 111 -133 148 -152 17 -9 32 -21 32 -26 0 -6
-348 -11 -957 -13 -527 -1 1121 -2 3662 -2 2541 0 4140 1 3553 2 -701 2 -1068
7 -1068 13 0 6 5 10 10 10 6 0 10 5 10 10 0 6 10 25 22 41 25 34 82 63 173 89
70 20 169 69 236 117 26 18 53 33 60 33 16 0 127 93 149 124 33 49 95 116 106
116 33 0 147 -219 160 -307 l6 -42 22 25 c11 13 35 42 51 64 17 22 45 57 62
78 18 20 39 57 47 82 8 25 22 59 30 77 32 61 61 368 37 396 -12 16 -4 50 10
41 5 -3 9 -1 9 3 0 5 15 9 33 10 72 2 250 40 296 62 9 5 39 19 66 32 126 61
255 158 255 194 0 13 19 43 48 73 108 113 117 128 128 201 3 20 17 68 30 106
64 180 67 199 72 408 4 213 -2 267 -54 452 -25 92 -72 307 -78 359 -3 25 7 39
65 96 l69 66 0 397 0 397 -103 103 c-208 208 -453 365 -682 438 -154 49 -380
91 -528 99 -82 4 -153 12 -159 18 -7 7 -7 47 1 129 14 156 15 219 6 333 -6 73
-10 89 -17 70 -5 -13 -10 -40 -12 -59 -1 -19 -8 -37 -14 -39 -8 -2 -12 18 -13
67 -1 39 -2 74 -3 79 -1 4 -6 27 -10 52 -11 63 -62 267 -96 385 -71 243 -107
338 -156 412 -19 28 -34 54 -34 58 0 4 -12 21 -27 39 l-26 31 5 -47 c3 -27 4
-48 3 -48 -1 0 -19 28 -39 63 -20 34 -53 80 -72 102 -20 22 -58 67 -86 100
-109 132 -164 188 -255 262 -53 43 -128 105 -167 138 -39 33 -80 65 -91 71
-11 6 -29 15 -40 21 -43 23 -153 62 -204 73 -87 17 -231 15 -250 -5 -15 -15
-15 -16 1 -10 20 8 80 -29 140 -87 34 -33 51 -61 71 -119 31 -87 33 -134 11
-209 -38 -128 -123 -242 -234 -314 -91 -59 -157 -97 -188 -106 -36 -11 -168
-61 -264 -99 -42 -16 -95 -42 -117 -56 -22 -14 -43 -25 -45 -25 -15 0 -127
-75 -173 -117 -119 -104 -235 -265 -257 -355 -6 -28 -28 -36 -52 -20 -8 4 -11
43 -11 107 0 55 -2 120 -5 145 -4 25 -9 65 -13 89 -3 24 -13 57 -21 73 -10 19
-11 28 -3 28 8 0 7 5 -2 17 -8 9 -13 17 -11 17 2 1 -1 14 -7 29 -6 16 -11 30
-11 33 0 2 -20 38 -45 78 -25 41 -45 79 -45 85 0 6 -4 11 -10 11 -5 0 -13 15
-18 33 -4 17 -17 36 -28 41 -12 5 -31 24 -44 43 -23 34 -282 284 -335 325 -16
12 -54 44 -84 70 -30 26 -58 45 -63 42 -4 -3 -8 -1 -8 4 0 12 -134 122 -148
122 -6 0 -21 13 -33 29 -12 17 -35 35 -50 42 -16 6 -29 16 -29 21 0 5 -4 6
-10 3 -5 -3 -10 -2 -10 3 0 6 -10 12 -22 16 -13 3 -48 21 -78 41 -30 19 -84
50 -120 68 -36 17 -68 36 -71 40 -3 5 -8 8 -10 6 -8 -4 -54 14 -61 25 -7 11
-12 13 -50 15 -12 0 -18 4 -15 7 11 12 -212 115 -271 125 -31 6 -66 15 -77 19
-11 5 -36 11 -55 15 -114 20 -139 25 -180 35 -25 6 -70 15 -100 19 -31 5 -66
11 -78 15 -13 4 -22 3 -22 -3z"/>
</g>
</svg>
